<svg width="24" height="24" viewBox="0 0 24 24" fill="none" xmlns="http://www.w3.org/2000/svg">
<mask id="mask0" mask-type="alpha" maskUnits="userSpaceOnUse" x="-1" y="-1" width="26" height="27">
<path fill-rule="evenodd" clip-rule="evenodd" d="M5.19427 1.95073C7.20877 0.556609 9.57718 -0.1875 12 -0.1875C15.2489 -0.1875 18.3647 1.14921 20.6621 3.52858C22.9594 5.90795 24.25 9.13507 24.25 12.5C24.25 15.0094 23.5316 17.4623 22.1855 19.5488C20.8395 21.6352 18.9263 23.2614 16.6879 24.2217C14.4495 25.182 11.9864 25.4333 9.61015 24.9437C7.23388 24.4542 5.05114 23.2458 3.33795 21.4714C1.62475 19.697 0.458055 17.4363 -0.0146141 14.9752C-0.487283 12.5141 -0.244692 9.96304 0.682481 7.6447C1.60965 5.32637 3.17977 3.34485 5.19427 1.95073ZM6.75001 20.0944V21.9069V21.9159C8.34386 22.8776 10.1554 23.3842 12 23.3842C13.8446 23.3842 15.6561 22.8776 17.25 21.9159V20.1034C17.2908 19.3366 17.0381 18.5841 16.5467 18.009C16.0553 17.4339 15.3648 17.0826 14.625 17.0312H9.37501C8.63677 17.0826 7.94766 17.4326 7.4565 18.0057C6.96535 18.5789 6.71158 19.3291 6.75001 20.0944ZM19 20.0309V20.5656C20.585 19.0973 21.7022 17.1652 22.2038 15.0248C22.7053 12.8845 22.5676 10.6369 21.8088 8.57944C21.05 6.52196 19.7059 4.7516 17.9544 3.50261C16.2029 2.25362 14.1265 1.58488 12 1.58488C9.87349 1.58488 7.7971 2.25362 6.04558 3.50261C4.29406 4.7516 2.94998 6.52196 2.1912 8.57944C1.43241 10.6369 1.29468 12.8845 1.79624 15.0248C2.2978 17.1652 3.415 19.0973 5 20.5656V20.0309C4.97388 18.7947 5.41791 17.5974 6.23634 16.6972C7.05477 15.797 8.18202 15.266 9.37501 15.2188H14.625C15.8172 15.2683 16.9432 15.8 17.7611 16.6997C18.5791 17.5994 19.0239 18.7954 19 20.0309ZM9.56938 5.1074C10.2888 4.6095 11.1347 4.34375 12 4.34375C13.1603 4.34375 14.2731 4.82115 15.0936 5.67092C15.9141 6.5207 16.375 7.67324 16.375 8.875C16.375 9.7712 16.1184 10.6473 15.6377 11.3924C15.157 12.1376 14.4737 12.7184 13.6742 13.0613C12.8748 13.4043 11.9952 13.494 11.1465 13.3192C10.2978 13.1443 9.51827 12.7128 8.90641 12.0791C8.29456 11.4454 7.87788 10.638 7.70907 9.759C7.54026 8.88003 7.6269 7.96894 7.95803 7.14097C8.28916 6.31299 8.84992 5.6053 9.56938 5.1074ZM10.5416 11.1356C10.9733 11.4343 11.4808 11.5938 12 11.5938C12.6962 11.5938 13.3639 11.3073 13.8562 10.7974C14.3484 10.2876 14.625 9.59606 14.625 8.875C14.625 8.33728 14.4711 7.81164 14.1826 7.36454C13.8942 6.91745 13.4842 6.56898 13.0045 6.3632C12.5249 6.15743 11.9971 6.10359 11.4879 6.20849C10.9787 6.31339 10.511 6.57233 10.1438 6.95255C9.77674 7.33278 9.52673 7.81721 9.42544 8.3446C9.32416 8.87198 9.37614 9.41863 9.57482 9.91542C9.7735 10.4122 10.11 10.8368 10.5416 11.1356Z" fill="black"/>
</mask>
<g mask="url(#mask0)">
<rect width="24" height="24" fill="#0B5FFF"/>
</g>
</svg>
