<svg width="16" height="16" viewBox="0 0 16 16" fill="none" xmlns="http://www.w3.org/2000/svg">
<mask id="mask0" mask-type="alpha" maskUnits="userSpaceOnUse" x="1" y="1" width="14" height="14">
<path fill-rule="evenodd" clip-rule="evenodd" d="M1.33337 8.00004C1.33337 4.32004 4.32004 1.33337 8.00004 1.33337C11.68 1.33337 14.6667 4.32004 14.6667 8.00004C14.6667 11.68 11.68 14.6667 8.00004 14.6667C4.32004 14.6667 1.33337 11.68 1.33337 8.00004ZM2.66671 8.00004C2.66671 10.94 5.06004 13.3334 8.00004 13.3334C10.94 13.3334 13.3334 10.94 13.3334 8.00004C13.3334 5.06004 10.94 2.66671 8.00004 2.66671C5.06004 2.66671 2.66671 5.06004 2.66671 8.00004ZM8.66671 10.6667V12H7.33337V10.6667H8.66671ZM5.45334 5.8867C5.82001 4.67337 7.03334 3.8267 8.40668 4.0267C9.56668 4.20003 10.48 5.18003 10.64 6.34003C10.7921 7.41573 10.1972 7.93476 9.62298 8.43573C9.51748 8.52777 9.41268 8.6192 9.31334 8.71337C9.23334 8.7867 9.16001 8.86003 9.09334 8.94003C9.09001 8.94337 9.08668 8.94837 9.08334 8.95337C9.08001 8.95837 9.07668 8.96337 9.07334 8.9667C9.00668 9.0467 8.94001 9.13337 8.88668 9.2267C8.88001 9.2367 8.87501 9.2467 8.87001 9.2567C8.86501 9.2667 8.86001 9.2767 8.85334 9.2867C8.74001 9.4867 8.66668 9.72003 8.66668 10H7.33334C7.33334 9.6667 7.38668 9.39337 7.46668 9.1667C7.4696 9.15793 7.47124 9.15044 7.47272 9.14368C7.47462 9.13501 7.47626 9.12752 7.48001 9.12003C7.48334 9.11003 7.48834 9.1017 7.49334 9.09337C7.49834 9.08503 7.50334 9.0767 7.50668 9.0667C7.55334 8.9467 7.61334 8.83337 7.67334 8.73337C7.67668 8.7267 7.68001 8.7217 7.68334 8.7167C7.68668 8.7117 7.69001 8.7067 7.69334 8.70003C7.69334 8.6967 7.69501 8.69503 7.69668 8.69337C7.69834 8.6917 7.70001 8.69003 7.70001 8.6867C7.92706 8.34475 8.23157 8.11056 8.51635 7.89155C8.92557 7.57684 9.29403 7.29346 9.33334 6.7667C9.38668 6.12003 8.92001 5.50003 8.28668 5.3667C7.60001 5.22003 6.96668 5.6267 6.75334 6.22003C6.66001 6.47337 6.44001 6.6667 6.16668 6.6667H6.03334C5.62668 6.6667 5.33334 6.27337 5.45334 5.8867Z" fill="black"/>
</mask>
<g mask="url(#mask0)">
<rect width="16" height="16" fill="#858C94"/>
</g>
</svg>
